<svg xmlns="http://www.w3.org/2000/svg" viewBox="0 0 180 140" role="img" aria-labelledby="title desc">
  <title id="title">Number train icon</title>
  <desc id="desc">A playful train with colorful number wagons one, two, and three.</desc>
  <defs>
    <filter id="shadow" x="-20%" y="-20%" width="140%" height="140%">
      <feDropShadow dx="0" dy="4" stdDeviation="4" flood-color="#5d2400" flood-opacity=".26" />
    </filter>
  </defs>

  <g filter="url(#shadow)">
    <g transform="translate(6 18)">
      <rect x="8" y="78" width="164" height="10" rx="5" fill="#7b3f00" opacity=".45" />

      <g transform="translate(0 10)">
        <rect x="0" y="46" width="52" height="26" rx="10" fill="#e54545" />
        <rect x="8" y="31" width="26" height="21" rx="6" fill="#ffca3a" />
        <rect x="15" y="36" width="12" height="10" rx="3" fill="#8ed6ff" />
        <rect x="18" y="20" width="12" height="16" rx="3" fill="#4a2d57" />
        <rect x="16" y="15" width="16" height="8" rx="4" fill="#845ec2" />
        <path d="M2 72h16l-6 10H0z" fill="#ff8c42" />
        <circle cx="14" cy="77" r="8" fill="#46324f" />
        <circle cx="38" cy="77" r="8" fill="#46324f" />
        <circle cx="14" cy="77" r="3.6" fill="#d9deeb" />
        <circle cx="38" cy="77" r="3.6" fill="#d9deeb" />
      </g>

      <g transform="translate(56 0)">
        <rect x="0" y="42" width="34" height="30" rx="12" fill="#42c86b" />
        <rect x="3" y="38" width="28" height="8" rx="4" fill="#7ee59c" opacity=".95" />
        <text x="17" y="65" text-anchor="middle" font-size="28" font-weight="900" font-family="Baloo, Fredoka, Nunito, Arial Rounded MT Bold, Arial, sans-serif" fill="#ffffff" stroke="#20743e" stroke-width="2.6" paint-order="stroke fill">1</text>
        <circle cx="9" cy="77" r="8" fill="#46324f" />
        <circle cx="25" cy="77" r="8" fill="#46324f" />
        <circle cx="9" cy="77" r="3.6" fill="#d9deeb" />
        <circle cx="25" cy="77" r="3.6" fill="#d9deeb" />
      </g>

      <rect x="92" y="58" width="8" height="4" rx="2" fill="#7b3f00" />

      <g transform="translate(102 0)">
        <rect x="0" y="34" width="34" height="38" rx="12" fill="#4ea8ff" />
        <rect x="3" y="30" width="28" height="8" rx="4" fill="#9dd4ff" opacity=".95" />
        <text x="17" y="60" text-anchor="middle" font-size="28" font-weight="900" font-family="Baloo, Fredoka, Nunito, Arial Rounded MT Bold, Arial, sans-serif" fill="#ffffff" stroke="#1f5aa6" stroke-width="2.6" paint-order="stroke fill">2</text>
        <circle cx="9" cy="77" r="8" fill="#46324f" />
        <circle cx="25" cy="77" r="8" fill="#46324f" />
        <circle cx="9" cy="77" r="3.6" fill="#d9deeb" />
        <circle cx="25" cy="77" r="3.6" fill="#d9deeb" />
      </g>

      <rect x="138" y="58" width="8" height="4" rx="2" fill="#7b3f00" />

      <g transform="translate(148 0)">
        <rect x="0" y="26" width="26" height="46" rx="12" fill="#ff7aa8" />
        <rect x="2" y="22" width="22" height="8" rx="4" fill="#ffc0d5" opacity=".95" />
        <text x="13" y="55" text-anchor="middle" font-size="26" font-weight="900" font-family="Baloo, Fredoka, Nunito, Arial Rounded MT Bold, Arial, sans-serif" fill="#ffffff" stroke="#b23b69" stroke-width="2.4" paint-order="stroke fill">3</text>
        <circle cx="6" cy="77" r="8" fill="#46324f" />
        <circle cx="20" cy="77" r="8" fill="#46324f" />
        <circle cx="6" cy="77" r="3.6" fill="#d9deeb" />
        <circle cx="20" cy="77" r="3.6" fill="#d9deeb" />
      </g>
    </g>
  </g>
</svg>
